<svg id="Capa_1" enable-background="new 0 0 511.991 511.991" height="512" viewBox="0 0 511.991 511.991" width="512" xmlns="http://www.w3.org/2000/svg"><g><g><path d="m510.509 373.224-26.827-131.215c-.829-4.06-4.789-6.675-8.85-5.846-4.059.829-6.676 4.792-5.846 8.85l26.827 131.217c.781 3.818 1.178 7.703 1.178 11.546 0 31.33-25.562 56.819-56.98 56.819-26.889 0-50.35-19.12-55.784-45.463l-18.128-87.959c-.469-24.954-20.9-45.113-45.964-45.113-22.803 0-41.772 16.685-45.365 38.485h-37.558c-3.593-21.801-22.562-38.485-45.365-38.485-25.066 0-45.499 20.161-45.965 45.118l-18.126 87.952c-2.641 12.799-9.674 24.399-19.803 32.662-10.13 8.256-22.909 12.803-35.981 12.803-17.179 0-33.262-7.633-44.124-20.94-10.863-13.309-15.119-30.595-11.679-47.427l26.77-130.925c.83-4.058-1.787-8.021-5.846-8.85-4.056-.829-8.02 1.787-8.85 5.846l-26.77 130.925c-4.348 21.264 1.03 43.102 14.754 59.915s34.041 26.456 55.744 26.456c16.516 0 32.659-5.744 45.461-16.178 12.795-10.438 21.679-25.09 25.015-41.258l12.833-62.27c8.409 11.017 21.669 18.143 36.567 18.143 22.803 0 41.773-16.686 45.365-38.487h37.557c3.592 21.802 22.562 38.487 45.365 38.487 14.898 0 28.158-7.126 36.567-18.143l12.833 62.272c6.866 33.279 36.505 57.434 70.476 57.434 39.69 0 71.98-32.218 71.98-71.819.001-4.851-.498-9.748-1.481-14.552zm-287.676-61.14c-.021 17.068-13.912 30.948-30.985 30.948-17.076 0-30.968-13.882-30.986-30.953 0-.022 0-.044 0-.066.018-17.071 13.911-30.954 30.986-30.954 17.073 0 30.964 13.879 30.985 30.947 0 .013-.002.025-.002.038 0 .014.002.027.002.04zm128.287-.017c-.011 17.076-13.907 30.966-30.986 30.966-17.073 0-30.965-13.88-30.985-30.948 0-.013.002-.026.002-.039s-.002-.025-.002-.038c.021-17.068 13.913-30.947 30.985-30.947 17.079 0 30.975 13.89 30.986 30.967z"/><path d="m41.163 216.553c4.056.827 8.021-1.787 8.85-5.846l12.146-59.417c3.122-15.248 16.682-26.314 32.242-26.314h49.46c10.809 0 20.928 5.306 27.071 14.194l8.176 11.827 20.012 32.07c1.422 2.279 3.867 3.53 6.369 3.53 1.356 0 2.729-.367 3.964-1.139 3.514-2.192 4.585-6.818 2.392-10.333l-12.917-20.7h114.126l-12.917 20.7c-2.193 3.515-1.122 8.141 2.392 10.333 1.235.771 2.607 1.139 3.964 1.139 2.502 0 4.947-1.252 6.369-3.53l20.012-32.07 8.177-11.828c6.143-8.888 16.262-14.193 27.07-14.193h49.46c15.561 0 29.12 11.066 32.242 26.313l12.149 59.419c.726 3.552 3.851 6 7.34 6 .498-.001 1.004-.051 1.51-.154 4.059-.829 6.676-4.792 5.846-8.85l-12.149-59.423c-4.545-22.195-24.285-38.305-46.938-38.305h-49.46c-15.734 0-30.467 7.726-39.409 20.665l-6.073 8.784h-41.975v-29.021c0-4.143-3.357-7.5-7.5-7.5h-9.673v-43.008c0-4.143-3.357-7.5-7.5-7.5s-7.5 3.357-7.5 7.5v43.008h-9.673c-4.143 0-7.5 3.357-7.5 7.5v29.021h-41.975l-6.072-8.783c-8.943-12.94-23.676-20.666-39.41-20.666h-49.46c-22.652 0-42.393 16.109-46.938 38.308l-12.146 59.42c-.83 4.058 1.787 8.02 5.846 8.849zm205.155-98.649h19.346v21.521h-19.346z"/><path d="m383.21 191.241c8.856 0 16.036-7.18 16.036-16.036s-7.18-16.036-16.036-16.036-16.036 7.18-16.036 16.036 7.179 16.036 16.036 16.036z"/><path d="m383.21 251.109c8.856 0 16.036-7.18 16.036-16.036s-7.18-16.036-16.036-16.036-16.036 7.18-16.036 16.036 7.179 16.036 16.036 16.036z"/><path d="m413.144 221.175c8.856 0 16.036-7.18 16.036-16.036s-7.179-16.036-16.036-16.036-16.036 7.18-16.036 16.036c0 8.857 7.179 16.036 16.036 16.036z"/><path d="m353.276 189.103c-8.856 0-16.036 7.18-16.036 16.036s7.18 16.036 16.036 16.036 16.036-7.18 16.036-16.036-7.179-16.036-16.036-16.036z"/><path d="m112.736 258.609h32.072c4.143 0 7.5-3.357 7.5-7.5v-22.434h22.434c4.143 0 7.5-3.357 7.5-7.5v-32.072c0-4.143-3.357-7.5-7.5-7.5h-22.434v-22.433c0-4.143-3.357-7.5-7.5-7.5h-32.072c-4.143 0-7.5 3.357-7.5 7.5v22.434h-22.433c-4.143 0-7.5 3.357-7.5 7.5v32.072c0 4.143 3.357 7.5 7.5 7.5h22.434v22.434c-.001 4.142 3.357 7.499 7.499 7.499zm-22.433-44.933v-17.072h22.434c4.143 0 7.5-3.357 7.5-7.5v-22.434h17.072v22.434c0 4.143 3.357 7.5 7.5 7.5h22.434v17.072h-22.434c-4.143 0-7.5 3.357-7.5 7.5v22.434h-17.072v-22.434c0-4.143-3.357-7.5-7.5-7.5z"/><path d="m235.788 221.925c-4.143 0-7.5 3.357-7.5 7.5v26.264c0 4.143 3.357 7.5 7.5 7.5h40.406c4.143 0 7.5-3.357 7.5-7.5v-26.264c0-4.143-3.357-7.5-7.5-7.5zm32.906 26.263h-25.406v-11.264h25.406z"/></g></g></svg>